<svg id="Layer_1" data-name="Layer 1" xmlns="http://www.w3.org/2000/svg" viewBox="0 0 937.6 238.94"><path d="M140.61,247.71l-46.8-82.66H73.75v82.66H31.2V35.57h79.63q24.61,0,41.94,8.67t26,23.4a63.92,63.92,0,0,1,8.66,33,63.19,63.19,0,0,1-12.16,37.84q-12.16,16.88-36.17,23.25l50.76,86ZM73.75,133.13h35.56q17.32,0,25.83-8.35t8.51-23.25q0-14.59-8.51-22.65t-25.83-8H73.75Z" transform="translate(-31.2 -11.51)" fill="#01a55f"/><path d="M456.08,22.81v224.9H413.53V22.81Z" transform="translate(-31.2 -11.51)" fill="#01a55f"/><path d="M653.33,176.29H530.24q1.51,18.24,12.76,28.57t27.66,10.33q23.72,0,33.74-20.36h45.89a76.75,76.75,0,0,1-28,40q-20.67,15.64-50.76,15.65-24.32,0-43.61-10.79a75.87,75.87,0,0,1-30.09-30.54q-10.78-19.76-10.79-45.59,0-26.15,10.64-45.9a74.3,74.3,0,0,1,29.79-30.39q19.14-10.63,44.06-10.64,24,0,43,10.34a72.77,72.77,0,0,1,29.48,29.33q10.49,19,10.49,43.61A100.38,100.38,0,0,1,653.33,176.29Zm-42.85-28.57q-.32-16.41-11.86-26.29t-28.26-9.88q-15.81,0-26.59,9.58t-13.23,26.59Z" transform="translate(-31.2 -11.51)" fill="#01a55f"/><path d="M684.78,117.63Q695,97.89,712.44,87.24a73.65,73.65,0,0,1,39-10.64q18.84,0,33,7.6a66.94,66.94,0,0,1,22.64,19.15v-24H850V247.71H807.11V223.1q-8.21,11.85-22.64,19.6t-33.28,7.75a71.59,71.59,0,0,1-38.75-10.94Q695,228.56,684.78,208.66T674.6,162.92Q674.6,137.39,684.78,117.63ZM801,136.93a42.86,42.86,0,0,0-16.41-17A43.86,43.86,0,0,0,762.43,114a42.71,42.71,0,0,0-38.14,22.64q-6.22,11.1-6.23,26.29t6.23,26.59A44.79,44.79,0,0,0,740.7,207a41.72,41.72,0,0,0,21.73,6.08,43.87,43.87,0,0,0,22.19-5.93,42.79,42.79,0,0,0,16.41-17q6.08-11.09,6.08-26.59T801,136.93Z" transform="translate(-31.2 -11.51)" fill="#01a55f"/><path d="M968.8,114.29H939.32V247.71H896.16V114.29H877V79.34h19.15V70.83q0-31,17.63-45.59T967,11.56V47.43q-15.5-.3-21.57,5.16t-6.08,19.76v7H968.8Z" transform="translate(-31.2 -11.51)" fill="#01a55f"/><path d="M208,236.06a2.14,2.14,0,0,0,1.3,1.61c17.75,7.25,43.82,14,72.21,7.3,55.84-13.15,99.38-73.21,105.12-150.15a2.18,2.18,0,0,0-1.86-2.3C308.31,82,240.47,112.07,215.94,163.92,203.47,190.29,204.6,217.19,208,236.06Z" transform="translate(-31.2 -11.51)" fill="#01a55f"/><path d="M209.36,237.7c1,.42,5.63,2.29,12.19,4.36,19.62-14,56.2-56.64,65.72-67.91a.7.7,0,0,0-.86-1.07c-13,6.95-62.4,33.79-80.16,50.07.86,8.54,1.55,11.91,1.71,12.82a2.34,2.34,0,0,0,.46,1.06A2.22,2.22,0,0,0,209.36,237.7Z" transform="translate(-31.2 -11.51)" fill="#06c672"/><path d="M311.13,125.7a22.15,22.15,0,0,0,27.75,34.08" transform="translate(-31.2 -11.51)" fill="none" stroke="#000" stroke-linecap="round" stroke-linejoin="round" stroke-width="3.68"/><path d="M336.39,107.77c2.3,4.59-1.56,11.1-6.8,12.75-3.72,1.18-8.85.12-10.82-3.52-2.4-4.41.87-10.72,5.75-12.72C328.7,102.58,334.45,103.88,336.39,107.77Z" transform="translate(-31.2 -11.51)"/><circle cx="297.88" cy="97.51" r="2.61" fill="#fff"/><path d="M364.27,142.24c2.3,4.59-1.56,11.1-6.8,12.75-3.72,1.18-8.85.12-10.82-3.52-2.4-4.41.86-10.72,5.75-12.72C356.58,137.05,362.32,138.35,364.27,142.24Z" transform="translate(-31.2 -11.51)"/><circle cx="325.76" cy="131.98" r="2.61" fill="#fff"/></svg>