<svg id="Layer_1" data-name="Layer 1" xmlns="http://www.w3.org/2000/svg" viewBox="0 0 451.89 351.34"><rect id="Rectangle_7" data-name="Rectangle 7" x="5" y="37.09" width="441.89" height="308.8" rx="11.78" fill="none" stroke="#747474" stroke-linecap="round" stroke-linejoin="round" stroke-width="10"/><g id="Shadow"><path id="Path_9" data-name="Path 9" d="M470.9,184.52v236H250c65.57-20.82,72.73-66.25,138-68.83l47.44-192.68Z" transform="translate(-24.01 -74.22)" fill="none"/><path id="Path_10" data-name="Path 10" d="M80.26,420.56H250c-65.56-20.82-120.17-51.18-185.46-53.8" transform="translate(-24.01 -74.22)" fill="none"/></g><g id="Pages"><path id="Left_Page" data-name="Left Page" d="M250,111.76v308.8A663.69,663.69,0,0,0,74.81,388a10.8,10.8,0,0,1-10.29-10.74V90A10.78,10.78,0,0,1,75.27,79.22h.54A663,663,0,0,1,250,111.76Z" transform="translate(-24.01 -74.22)" fill="#fff" stroke="#747474" stroke-linecap="round" stroke-linejoin="round" stroke-width="10"/><path id="Right_Page" data-name="Right Page" d="M250,111.76v308.8A663.25,663.25,0,0,1,425.13,388a10.79,10.79,0,0,0,10.29-10.74V90a10.78,10.78,0,0,0-10.74-10.82h-.58A663.14,663.14,0,0,0,250,111.76Z" transform="translate(-24.01 -74.22)" fill="#fff" stroke="#747474" stroke-linecap="round" stroke-linejoin="round" stroke-width="10"/><g id="Left_Text" data-name="Left Text"><path id="Path_11" data-name="Path 11" d="M90.31,117.21a514.46,514.46,0,0,1,143.45,25.54" transform="translate(-24.01 -74.22)" fill="none" stroke="#747474" stroke-linecap="round" stroke-linejoin="round" stroke-width="6"/><path id="Path_12" data-name="Path 12" d="M90.31,159a514.11,514.11,0,0,1,143.45,25.55" transform="translate(-24.01 -74.22)" fill="none" stroke="#747474" stroke-linecap="round" stroke-linejoin="round" stroke-width="6"/><path id="Path_13" data-name="Path 13" d="M90.31,200.78a514.48,514.48,0,0,1,143.45,25.55" transform="translate(-24.01 -74.22)" fill="none" stroke="#747474" stroke-linecap="round" stroke-linejoin="round" stroke-width="6"/><path id="Path_14" data-name="Path 14" d="M90.31,242.57a514.48,514.48,0,0,1,143.45,25.55" transform="translate(-24.01 -74.22)" fill="none" stroke="#747474" stroke-linecap="round" stroke-linejoin="round" stroke-width="6"/><path id="Path_15" data-name="Path 15" d="M90.31,284.36a514.48,514.48,0,0,1,143.45,25.55" transform="translate(-24.01 -74.22)" fill="none" stroke="#747474" stroke-linecap="round" stroke-linejoin="round" stroke-width="6"/><path id="Path_16" data-name="Path 16" d="M90.31,326.15A514.11,514.11,0,0,1,233.76,351.7" transform="translate(-24.01 -74.22)" fill="none" stroke="#747474" stroke-linecap="round" stroke-linejoin="round" stroke-width="6"/></g><g id="Right_Text" data-name="Right Text"><path id="Path_17" data-name="Path 17" d="M313.33,131.4A346.5,346.5,0,0,0,271,142.77" transform="translate(-24.01 -74.22)" fill="none" stroke="#747474" stroke-linecap="round" stroke-linejoin="round" stroke-width="6"/><path id="Path_18" data-name="Path 18" d="M414.43,117.21a211,211,0,0,0-26.45,2" transform="translate(-24.01 -74.22)" fill="none" stroke="#747474" stroke-linecap="round" stroke-linejoin="round" stroke-width="6"/><path id="Path_19" data-name="Path 19" d="M305.53,174.89c-14.39,3.4-19.08,4.73-34.59,9.63" transform="translate(-24.01 -74.22)" fill="none" stroke="#747474" stroke-linecap="round" stroke-linejoin="round" stroke-width="6"/><path id="Path_20" data-name="Path 20" d="M414.43,159a350.06,350.06,0,0,0-41.9,3.63" transform="translate(-24.01 -74.22)" fill="none" stroke="#747474" stroke-linecap="round" stroke-linejoin="round" stroke-width="6"/><path id="Path_21" data-name="Path 21" d="M295.49,219.24c-10.8,2.78-13.11,3.41-24.54,7.08" transform="translate(-24.01 -74.22)" fill="none" stroke="#747474" stroke-linecap="round" stroke-linejoin="round" stroke-width="6"/><path id="Path_22" data-name="Path 22" d="M414.43,200.76a376.72,376.72,0,0,0-52.91,4.59" transform="translate(-24.01 -74.22)" fill="none" stroke="#747474" stroke-linecap="round" stroke-linejoin="round" stroke-width="6"/><path id="Path_23" data-name="Path 23" d="M287,263.3c-7.13,2-8.63,2.42-16.1,4.82" transform="translate(-24.01 -74.22)" fill="none" stroke="#747474" stroke-linecap="round" stroke-linejoin="round" stroke-width="6"/><path id="Path_24" data-name="Path 24" d="M349,249.65a391.31,391.31,0,0,1,65.47-7.09" transform="translate(-24.01 -74.22)" fill="none" stroke="#747474" stroke-linecap="round" stroke-linejoin="round" stroke-width="6"/><path id="Path_25" data-name="Path 25" d="M276.12,308.32c-3.41,1-1.69.52-5.18,1.61" transform="translate(-24.01 -74.22)" fill="none" stroke="#747474" stroke-linecap="round" stroke-linejoin="round" stroke-width="6"/><path id="Path_26" data-name="Path 26" d="M337,293.61a412.87,412.87,0,0,1,77.46-9.25" transform="translate(-24.01 -74.22)" fill="none" stroke="#747474" stroke-linecap="round" stroke-linejoin="round" stroke-width="6"/><path id="Path_27" data-name="Path 27" d="M329.75,336.46a432.64,432.64,0,0,1,84.68-10.29" transform="translate(-24.01 -74.22)" fill="none" stroke="#747474" stroke-linecap="round" stroke-linejoin="round" stroke-width="6"/></g></g><g id="Pencil"><path id="Rectangle_8" data-name="Rectangle 8" d="M351.31,104.46l5.79,1.48a11.09,11.09,0,0,1,8,13.48l-7,27.41h0l-27.3-6.94h0l7-27.41a11.1,11.1,0,0,1,13.49-8Z" transform="translate(-24.01 -74.22)" fill="none" stroke="#747474" stroke-linecap="round" stroke-linejoin="round" stroke-width="6"/><g id="Group_1" data-name="Group 1"><path id="Path_28" data-name="Path 28" d="M304.18,358.92l-21.13,25.73-6.13-32.72a8,8,0,0,1,6.75-2.94c3.17,1,3.55,6.81,6.6,7.57s5.51-4.52,8.66-3.75A11,11,0,0,1,304.18,358.92Z" transform="translate(-24.01 -74.22)" fill="none" stroke="#747474" stroke-linecap="round" stroke-linejoin="round" stroke-width="6"/><path id="Path_29" data-name="Path 29" d="M358.14,146.86l-53.9,212-.06.06a11.05,11.05,0,0,0-5.23-6.13c-3.16-.77-5.61,4.51-8.66,3.75s-3.41-6.53-6.6-7.57a8,8,0,0,0-6.76,2.94v-.05l53.9-212Z" transform="translate(-24.01 -74.22)" fill="none" stroke="#747474" stroke-linecap="round" stroke-linejoin="round" stroke-width="6"/></g></g></svg>