<svg id="Layer_1" data-name="Layer 1" xmlns="http://www.w3.org/2000/svg" viewBox="0 0 452.31 452.31"><path id="Circle-2" d="M250,28.74c-122.14,0-221.17,99-221.2,221.11S127.78,471,249.92,471s221.17-99,221.19-221.11h0c0-122.13-98.94-221.16-221.06-221.19Z" transform="translate(-23.8 -23.74)" fill="none" stroke="#747474" stroke-miterlimit="10" stroke-width="10"/><g id="Person"><path id="Head" d="M295.21,125.87A45.26,45.26,0,1,1,250,80.61a45.25,45.25,0,0,1,45.25,45.26Z" transform="translate(-23.8 -23.74)" fill="none" stroke="#747474" stroke-linecap="round" stroke-linejoin="round" stroke-width="10"/><path id="Body" d="M282,197.18H217.93a16.54,16.54,0,0,0-13.49,7l-40,56.74a16.2,16.2,0,0,1-1.49,1.82l-40.61,43A16.51,16.51,0,0,0,123,329h0l13.3,12.55-4.46,13.86a16.52,16.52,0,0,0,10.68,20.75L176,386.92c6.84,2.2-11.21,8.54-11.21,15.72h0c0,9.12,10.07,16.52,22.5,16.52H312.58c12.43,0,22.51-7.4,22.51-16.52h0c0-7.18-18.06-13.52-11.22-15.72l33.52-10.73a16.51,16.51,0,0,0,10.7-20.74v0l-4.42-13.84L377,329a16.49,16.49,0,0,0,.69-23.33h0l-40.6-43a15.09,15.09,0,0,1-1.48-1.82L295.5,204.17A16.48,16.48,0,0,0,282,197.18ZM204.7,260.91v80a10.34,10.34,0,0,1-10.34,10.34,10.52,10.52,0,0,1-3.15-.49l-32.89-10.49a8.88,8.88,0,0,1-3.75-14.52l38.88-41.22a16.45,16.45,0,0,0,3.18-4.84Zm104,89.9a10.34,10.34,0,0,1-13-6.7,10.22,10.22,0,0,1-.5-3.15v-80l9.12,21.29.08.25,40.92,43.33a8.87,8.87,0,0,1-3.73,14.52Z" transform="translate(-23.8 -23.74)" fill="none" stroke="#747474" stroke-linecap="round" stroke-linejoin="round" stroke-width="10"/></g></svg>