<svg id="Layer_1" data-name="Layer 1" xmlns="http://www.w3.org/2000/svg" viewBox="0 0 446.75 461.94"><path id="Path_38" data-name="Path 38" d="M458.93,302.26l-38-21.82a171.89,171.89,0,0,0,0-61.11l38-21.81a18.83,18.83,0,0,0,6.89-25.69L425.49,102a18.84,18.84,0,0,0-25.69-6.9l-38,21.91A171.14,171.14,0,0,0,309,86.54V42.71a18.79,18.79,0,0,0-18.78-18.79H209.67a18.78,18.78,0,0,0-18.79,18.77V86.54a171.18,171.18,0,0,0-52.8,30.5l-38-21.91A18.84,18.84,0,0,0,74.42,102l-40.33,69.8A18.84,18.84,0,0,0,41,197.52l38,21.81a171.43,171.43,0,0,0,0,61.11L41,302.26A18.84,18.84,0,0,0,34.09,328l40.33,69.8a18.84,18.84,0,0,0,25.69,6.9l38-21.92a171.21,171.21,0,0,0,52.8,30.51v43.83a18.78,18.78,0,0,0,18.78,18.79h80.58A18.79,18.79,0,0,0,309,457.08h0V413.24a171.16,171.16,0,0,0,52.79-30.51l38,21.92a18.84,18.84,0,0,0,25.69-6.9L465.82,328A18.83,18.83,0,0,0,458.93,302.26Zm-209,38.54a90.92,90.92,0,1,1,.08,0Z" transform="translate(-26.58 -18.92)" fill="none" stroke="#747474" stroke-miterlimit="10" stroke-width="10"/></svg>