<svg id="Layer_1" data-name="Layer 1" xmlns="http://www.w3.org/2000/svg" viewBox="0 0 446.55 421.32"><g id="Target_Stroke" data-name="Target Stroke"><path id="Path_34" data-name="Path 34" d="M379.28,89.31c-88.74-72-219.06-58.45-291.08,30.3S29.75,338.67,118.5,410.69s219.06,58.45,291.07-30.3a206.91,206.91,0,0,0,33.85-201m-53.78,5.78a155.9,155.9,0,1,1-33.56-47.1" transform="translate(-38.23 -39.34)" fill="none" stroke="#747474" stroke-linecap="round" stroke-linejoin="round" stroke-width="7.43"/><path id="Path_35" data-name="Path 35" d="M356.08,138.11a155.34,155.34,0,1,0,33.56,47.1m-47.22,21.63a103.83,103.83,0,1,1-22.15-31.15" transform="translate(-38.23 -39.34)" fill="none" stroke="#747474" stroke-linecap="round" stroke-linejoin="round" stroke-width="7.43"/><path id="Path_36" data-name="Path 36" d="M320.27,175.69a103.64,103.64,0,1,0,22.15,31.15m-43.77,31.37a51.87,51.87,0,1,1-22-31.21" transform="translate(-38.23 -39.34)" fill="none" stroke="#747474" stroke-linecap="round" stroke-linejoin="round" stroke-width="7.43"/><path id="Path_37" data-name="Path 37" d="M298.65,238.21a51.87,51.87,0,1,1-22-31.21" transform="translate(-38.23 -39.34)" fill="none" stroke="#747474" stroke-linecap="round" stroke-linejoin="round" stroke-width="7.43"/></g><g id="Arrow"><rect id="Spear" x="213.93" y="173" width="254.5" height="22.39" rx="11.19" transform="translate(-81.66 193.93) rotate(-35.63)" fill="none" stroke="#747474" stroke-linecap="round" stroke-linejoin="round" stroke-width="7.43"/><g id="Feathers"><path id="Feather" d="M424.31,180.91l53.58-38.41c4.54-3.26,4.12-9.39-.74-10.5l-32.88-7.54-67.34,48.26,41.51,9.53A7.45,7.45,0,0,0,424.31,180.91Z" transform="translate(-38.23 -39.34)" fill="none" stroke="#747474" stroke-linecap="round" stroke-linejoin="round" stroke-width="7.43"/><path id="Feather-2" d="M372.35,106l53.58-38.41c4.54-3.26,10.21-.89,9.71,4l-3.41,33.58-67.34,48.27,4.31-42.37A7.42,7.42,0,0,1,372.35,106Z" transform="translate(-38.23 -39.34)" fill="none" stroke="#747474" stroke-linecap="round" stroke-linejoin="round" stroke-width="7.43"/></g></g></svg>