<svg id="Layer_1" data-name="Layer 1" xmlns="http://www.w3.org/2000/svg" viewBox="0 0 446.65 421.3"><g id="Target_Fill" data-name="Target Fill"><path id="Path_30-2" data-name="Path 30-2" d="M442.66,179.18l-17.79,10.08a7,7,0,0,1-5.88,1.48l-29.94-5.8a155.48,155.48,0,1,1-33.47-47l2.54-28.68a8.39,8.39,0,0,1,3.15-5.63l17.46-14.36C290.21,17.46,160.23,31,88.41,119.5S30.11,338,118.62,409.82s218.49,58.3,290.32-30.21A206.4,206.4,0,0,0,442.7,179.17Z" transform="translate(-37.26 -39.13)" fill="#f5f5f5"/><path id="Path_31" data-name="Path 31" d="M389,184.94l-11-4.33-36.12,25.94a103.57,103.57,0,1,1-22.1-31.07l34.61-24.8L355.55,138A154.94,154.94,0,1,0,389,185Z" transform="translate(-37.26 -39.13)" fill="#01a55f"/><path id="Path_32" data-name="Path 32" d="M341.93,206.52l-43.66,31.29a51.74,51.74,0,1,1-22-31.14l43.56-31.21a103.35,103.35,0,1,0,22.1,31.07Z" transform="translate(-37.26 -39.13)" fill="#f5f5f5"/><path id="Path_33" data-name="Path 33" d="M299.66,250a51.72,51.72,0,1,1-23.39-43.33L235.08,236.2a19.07,19.07,0,0,0,22.24,31h0l40.95-29.38A52,52,0,0,1,299.66,250Z" transform="translate(-37.26 -39.13)" fill="#01a55f"/></g><g id="Target_Stroke" data-name="Target Stroke"><path id="Path_34" data-name="Path 34" d="M378.69,89.3A206.23,206.23,0,0,0,247.86,42.84a209.18,209.18,0,0,0-85.37,18.32c-104.11,47.24-150.21,169.94-103,274s169.94,150.2,274.05,103a207,207,0,0,0,109.09-259M389,184.94a155.48,155.48,0,1,1-33.47-47" transform="translate(-37.26 -39.13)" fill="none" stroke="#000" stroke-linecap="round" stroke-linejoin="round" stroke-width="7.41"/><path id="Path_35" data-name="Path 35" d="M355.55,138a154.95,154.95,0,1,0,33.47,47m-47.09,21.58a103.58,103.58,0,1,1-22.1-31.07" transform="translate(-37.26 -39.13)" fill="none"/><path id="Path_36" data-name="Path 36" d="M319.83,175.45a103.34,103.34,0,1,0,22.1,31.07m-43.66,31.29a51.74,51.74,0,1,1-22-31.14" transform="translate(-37.26 -39.13)" fill="none"/><path id="Path_37" data-name="Path 37" d="M298.27,237.81a51.74,51.74,0,1,1-22-31.14" transform="translate(-37.26 -39.13)" fill="none"/></g><g id="Arrow"><rect id="Spear" x="213.76" y="172.77" width="253.84" height="22.34" rx="11.16" transform="translate(-80.63 193.8) rotate(-35.63)" fill="#b7703b" stroke="#000" stroke-linecap="round" stroke-linejoin="round" stroke-width="7.41"/><g id="Feathers"><path id="Feather" d="M423.6,180.65,477,142.34c4.53-3.25,4.11-9.36-.74-10.47l-32.79-7.52-67.16,48.14,41.4,9.5A7.45,7.45,0,0,0,423.6,180.65Z" transform="translate(-37.26 -39.13)" fill="#e5a57a" stroke="#000" stroke-linecap="round" stroke-linejoin="round" stroke-width="7.41"/><path id="Feather-2" d="M371.77,105.89l53.45-38.32c4.53-3.24,10.18-.88,9.68,4.05l-3.4,33.49-67.16,48.14,4.3-42.26A7.42,7.42,0,0,1,371.77,105.89Z" transform="translate(-37.26 -39.13)" fill="#e5a57a" stroke="#000" stroke-linecap="round" stroke-linejoin="round" stroke-width="7.41"/></g></g></svg>